# xmcd
#
# Track frame offsets:
#	150
#	24127
#	40897
#	61132
#	73612
#	91630
#	108650
#	123980
#	138487
#	153195
#	173242
#
# Disc length: 2548 seconds
#
# Revision: 1
# Processed by: cddbd v1.5.1PL2 Copyright (c) Steve Scherf et al.
# Submitted via: audiograbber 1.83.01
#
DISCID=8509f20b
DTITLE=Rita MacNeil - Flying On Your Own
DYEAR=1987
DGENRE=Pop
TTITLE0=Flying On Your Own
TTITLE1=Neon City
TTITLE2=She's Called Nova Scotia
TTITLE3=Baby Baby
TTITLE4=Leave Her Memory
TTITLE5=Fast Train To Tokyo
TTITLE6=Everybody
TTITLE7=Used To You
TTITLE8=Loser (When It Comes To Love)
TTITLE9=Realized Your Dreams
TTITLE10=I Believe In You
EXTD=
EXTT0=
EXTT1=
EXTT2=
EXTT3=
EXTT4=
EXTT5=
EXTT6=
EXTT7=
EXTT8=
EXTT9=
EXTT10=
PLAYORDER=
